<svg width="680" height="1232" viewBox="0 0 680 1232" fill="none" xmlns="http://www.w3.org/2000/svg">
<defs>
<linearGradient id="bg" x1="0" y1="0" x2="1" y2="1"><stop offset="0" stop-color="#00BFFF"/><stop offset="1" stop-color="#00E6B0"/></linearGradient>
<g id="markL">
<path d="M50 8 L88 21 V52 C88 74 71 88 50 95 C29 88 12 74 12 52 V21 Z" fill="none" stroke="#FFFFFF" stroke-opacity="0.18" stroke-width="1.4"/>
<rect x="20" y="30" width="11" height="48" rx="2.5" fill="url(#bg)"/>
<rect x="61" y="24" width="11" height="54" rx="2.5" fill="url(#bg)"/>
<path d="M72 27 H80 C90.5 27 90.5 45 80 45 H72" fill="none" stroke="url(#bg)" stroke-width="9" stroke-linecap="round"/>
<polyline points="25,62 39,55 52,49 66,40" fill="none" stroke="#FFFFFF" stroke-width="2.6" stroke-linecap="round" stroke-linejoin="round"/>
<circle cx="25" cy="62" r="3.2" fill="#00E6B0"/><circle cx="39" cy="55" r="2.4" fill="#FFFFFF"/><circle cx="52" cy="49" r="2.4" fill="#FFFFFF"/><circle cx="66" cy="40" r="3.6" fill="#00BFFF"/>
</g>
<g id="markD">
<path d="M50 8 L88 21 V52 C88 74 71 88 50 95 C29 88 12 74 12 52 V21 Z" fill="none" stroke="#0A0A0A" stroke-opacity="0.14" stroke-width="1.4"/>
<rect x="20" y="30" width="11" height="48" rx="2.5" fill="url(#bg)"/>
<rect x="61" y="24" width="11" height="54" rx="2.5" fill="url(#bg)"/>
<path d="M72 27 H80 C90.5 27 90.5 45 80 45 H72" fill="none" stroke="url(#bg)" stroke-width="9" stroke-linecap="round"/>
<polyline points="25,62 39,55 52,49 66,40" fill="none" stroke="#0A0A0A" stroke-width="2.6" stroke-linecap="round" stroke-linejoin="round"/>
<circle cx="25" cy="62" r="3.2" fill="#00E6B0"/><circle cx="39" cy="55" r="2.4" fill="#0A0A0A"/><circle cx="52" cy="49" r="2.4" fill="#0A0A0A"/><circle cx="66" cy="40" r="3.6" fill="#00BFFF"/>
</g>
</defs>
<rect x="0" y="0" width="680" height="1232" rx="18" fill="#08090B"/>
<rect x="16" y="16" width="648" height="200" rx="12" fill="#101216" stroke="#FFFFFF" stroke-opacity="0.08" stroke-width="0.5"/>
<use href="#markL" transform="translate(48,52) scale(1.5)"/>
<text x="224" y="112" font-family="Arial, sans-serif" font-size="36" font-weight="700" letter-spacing="3" fill="#F5F7FA">HUBPRICE<tspan fill="url(#bg)">.AI</tspan></text>
<line x1="226" y1="126" x2="356" y2="126" stroke="url(#bg)" stroke-width="2"/>
<text x="226" y="148" font-family="Arial, sans-serif" font-size="11.5" letter-spacing="5" fill="#8A9099">AI-POWERED TRUTH IN EVERY TRANSACTION</text>
<text x="226" y="178" font-family="Arial, sans-serif" font-size="11" letter-spacing="1" fill="#5C636C">Marketplace intelligence · cars · real estate · investments</text>
<rect x="16" y="232" width="312" height="210" rx="12" fill="#101216" stroke="#FFFFFF" stroke-opacity="0.08" stroke-width="0.5"/>
<use href="#markL" transform="translate(102,271) scale(1.3)"/>
<text x="172" y="424" text-anchor="middle" font-family="Arial, sans-serif" font-size="12" letter-spacing="1" fill="#8A9099">Monogram · dark mode</text>
<rect x="352" y="232" width="312" height="210" rx="12" fill="#FFFFFF"/>
<use href="#markD" transform="translate(438,271) scale(1.3)"/>
<text x="508" y="424" text-anchor="middle" font-family="Arial, sans-serif" font-size="12" letter-spacing="1" fill="#5F5E5A">Monogram · light mode</text>
<rect x="16" y="458" width="648" height="140" rx="12" fill="#101216" stroke="#FFFFFF" stroke-opacity="0.08" stroke-width="0.5"/>
<use href="#markL" transform="translate(44,468) scale(0.92)"/>
<text x="156" y="522" font-family="Arial, sans-serif" font-size="28" font-weight="700" letter-spacing="2.5" fill="#F5F7FA">HUBPRICE<tspan fill="url(#bg)">.AI</tspan></text>
<text x="158" y="550" font-family="Arial, sans-serif" font-size="10.5" letter-spacing="4" fill="#8A9099">AI-POWERED TRUTH IN EVERY TRANSACTION</text>
<text x="158" y="576" font-family="Arial, sans-serif" font-size="11" letter-spacing="1" fill="#5C636C">Horizontal lockup</text>
<rect x="16" y="614" width="312" height="250" rx="12" fill="#101216" stroke="#FFFFFF" stroke-opacity="0.08" stroke-width="0.5"/>
<use href="#markL" transform="translate(128,646) scale(0.82)"/>
<text x="172" y="760" text-anchor="middle" font-family="Arial, sans-serif" font-size="22" font-weight="700" letter-spacing="2" fill="#F5F7FA">HUBPRICE<tspan fill="url(#bg)">.AI</tspan></text>
<text x="172" y="782" text-anchor="middle" font-family="Arial, sans-serif" font-size="10" letter-spacing="2.5" fill="#8A9099">AI-POWERED TRUTH</text>
<text x="172" y="844" text-anchor="middle" font-family="Arial, sans-serif" font-size="12" letter-spacing="1" fill="#5C636C">Vertical lockup</text>
<rect x="352" y="614" width="312" height="250" rx="12" fill="#101216" stroke="#FFFFFF" stroke-opacity="0.08" stroke-width="0.5"/>
<rect x="448" y="636" width="120" height="120" rx="28" fill="#0E1014" stroke="url(#bg)" stroke-width="1.5"/>
<use href="#markL" transform="translate(465,655) scale(0.8)"/>
<rect x="412" y="780" width="48" height="48" rx="12" fill="#0E1014" stroke="#FFFFFF" stroke-opacity="0.18" stroke-width="0.5"/>
<use href="#markL" transform="translate(414,782) scale(0.4)"/>
<rect x="476" y="788" width="32" height="32" rx="8" fill="#0E1014" stroke="#FFFFFF" stroke-opacity="0.18" stroke-width="0.5"/>
<use href="#markL" transform="translate(478,790) scale(0.27)"/>
<rect x="524" y="796" width="20" height="20" rx="5" fill="#0E1014" stroke="#FFFFFF" stroke-opacity="0.18" stroke-width="0.5"/>
<use href="#markL" transform="translate(525,797) scale(0.17)"/>
<text x="508" y="848" text-anchor="middle" font-family="Arial, sans-serif" font-size="12" letter-spacing="1" fill="#5C636C">App icon · favicons (48 / 32 / 16)</text>
<rect x="16" y="880" width="648" height="150" rx="12" fill="#101216" stroke="#FFFFFF" stroke-opacity="0.08" stroke-width="0.5"/>
<text x="32" y="910" font-family="Arial, sans-serif" font-size="12" letter-spacing="1" fill="#8A9099">Color system</text>
<rect x="32" y="924" width="113" height="64" rx="10" fill="#00BFFF"/>
<text x="88" y="1008" text-anchor="middle" font-family="Arial, sans-serif" font-size="12" fill="#F5F7FA">Electric blue</text>
<text x="88" y="1024" text-anchor="middle" font-family="monospace" font-size="11" fill="#8A9099">#00BFFF</text>
<rect x="157" y="924" width="113" height="64" rx="10" fill="#00E6B0"/>
<text x="213" y="1008" text-anchor="middle" font-family="Arial, sans-serif" font-size="12" fill="#F5F7FA">Emerald</text>
<text x="213" y="1024" text-anchor="middle" font-family="monospace" font-size="11" fill="#8A9099">#00E6B0</text>
<rect x="282" y="924" width="113" height="64" rx="10" fill="#C9CDD2"/>
<text x="338" y="1008" text-anchor="middle" font-family="Arial, sans-serif" font-size="12" fill="#F5F7FA">Silver</text>
<text x="338" y="1024" text-anchor="middle" font-family="monospace" font-size="11" fill="#8A9099">#C9CDD2</text>
<rect x="407" y="924" width="113" height="64" rx="10" fill="#FFFFFF"/>
<text x="463" y="1008" text-anchor="middle" font-family="Arial, sans-serif" font-size="12" fill="#F5F7FA">White</text>
<text x="463" y="1024" text-anchor="middle" font-family="monospace" font-size="11" fill="#8A9099">#FFFFFF</text>
<rect x="532" y="924" width="113" height="64" rx="10" fill="#0A0A0A" stroke="#FFFFFF" stroke-opacity="0.2" stroke-width="0.5"/>
<text x="588" y="1008" text-anchor="middle" font-family="Arial, sans-serif" font-size="12" fill="#F5F7FA">Deep black</text>
<text x="588" y="1024" text-anchor="middle" font-family="monospace" font-size="11" fill="#8A9099">#0A0A0A</text>
<rect x="16" y="1046" width="648" height="170" rx="12" fill="#101216" stroke="#FFFFFF" stroke-opacity="0.08" stroke-width="0.5"/>
<text x="32" y="1078" font-family="Arial, sans-serif" font-size="12" letter-spacing="1" fill="#8A9099">Clear space &amp; usage</text>
<rect x="44" y="1096" width="120" height="100" rx="8" fill="none" stroke="#FFFFFF" stroke-opacity="0.28" stroke-width="0.8" stroke-dasharray="4 4"/>
<use href="#markL" transform="translate(62,1108) scale(0.78)"/>
<circle cx="200" cy="1106" r="3" fill="url(#bg)"/>
<text x="214" y="1110" font-family="Arial, sans-serif" font-size="12.5" fill="#C8CCD2">Minimum clear space equals the cap-height of the monogram on all sides.</text>
<circle cx="200" cy="1140" r="3" fill="url(#bg)"/>
<text x="214" y="1144" font-family="Arial, sans-serif" font-size="12.5" fill="#C8CCD2">Never stretch, rotate, recolor, or add shadows to the mark.</text>
<circle cx="200" cy="1174" r="3" fill="url(#bg)"/>
<text x="214" y="1178" font-family="Arial, sans-serif" font-size="12.5" fill="#C8CCD2">Keep a 24px minimum digital size; pair only on black, white or silver.</text>
</svg>
