<svg width="120" height="120" viewBox="0 0 120 120" fill="none" xmlns="http://www.w3.org/2000/svg">
<defs>
<linearGradient id="hpg" x1="0" y1="0" x2="1" y2="1"><stop offset="0" stop-color="#00BFFF"/><stop offset="1" stop-color="#00E6B0"/></linearGradient>
</defs>
<rect x="2" y="2" width="116" height="116" rx="32" fill="#0E1014" stroke="url(#hpg)" stroke-width="2"/>
<g transform="translate(18,12) scale(0.84)">
<path d="M50 8 L88 21 V52 C88 74 71 88 50 95 C29 88 12 74 12 52 V21 Z" fill="none" stroke="#FFFFFF" stroke-opacity="0.18" stroke-width="1.4"/>
<rect x="20" y="30" width="11" height="48" rx="2.5" fill="url(#hpg)"/>
<rect x="61" y="24" width="11" height="54" rx="2.5" fill="url(#hpg)"/>
<path d="M72 27 H80 C90.5 27 90.5 45 80 45 H72" fill="none" stroke="url(#hpg)" stroke-width="9" stroke-linecap="round"/>
<polyline points="25,62 39,55 52,49 66,40" fill="none" stroke="#FFFFFF" stroke-width="2.6" stroke-linecap="round" stroke-linejoin="round"/>
<circle cx="25" cy="62" r="3.2" fill="#00E6B0"/>
<circle cx="39" cy="55" r="2.4" fill="#FFFFFF"/>
<circle cx="52" cy="49" r="2.4" fill="#FFFFFF"/>
<circle cx="66" cy="40" r="3.6" fill="#00BFFF"/>
</g>
</svg>
